# Blender 4.1.1
# www.blender.org
mtllib MONTAÑACARRETERAYARBOL.mtl
o Tronco
v -0.012979 1.245475 -0.506271
v -0.445992 1.245475 -0.256271
v -0.445992 1.245475 0.243729
v -0.012979 1.245475 0.493729
v 0.420034 1.245475 0.243729
v 0.420034 1.245475 -0.256271
v -0.012979 1.245475 -0.506271
v -0.445992 1.245475 -0.256271
v -0.445992 1.245475 0.243729
v -0.012979 1.245475 0.493729
v 0.420034 1.245475 0.243729
v 0.420034 1.245475 -0.256271
v -0.012979 1.899814 -0.417297
v -0.368938 1.899814 -0.211784
v -0.368938 1.899814 0.199242
v -0.012979 1.899814 0.404755
v 0.342980 1.899814 0.199242
v 0.342980 1.899814 -0.211784
v -0.012979 3.281198 -0.365922
v -0.324446 3.281198 -0.186097
v -0.324446 3.281198 0.173555
v -0.012979 3.281198 0.353380
v 0.298488 3.281198 0.173555
v 0.298488 3.281198 -0.186097
v -0.012979 4.080946 -0.303050
v -0.269997 4.080946 -0.154661
v -0.269997 4.080946 0.142119
v -0.012979 4.080946 0.290508
v 0.244040 4.080946 0.142119
v 0.244040 4.080946 -0.154661
v -0.012979 4.662580 -0.303050
v -0.269997 4.662580 -0.154661
v -0.269997 4.662580 0.142119
v -0.012979 4.662580 0.290508
v 0.244040 4.662580 0.142119
v 0.244040 4.662580 -0.154661
v -0.012979 4.163657 -3.890265
v -3.376617 4.163657 -1.948268
v -3.376617 4.163657 1.935726
v -0.012979 4.163657 3.877724
v 3.350659 4.163657 1.935726
v 3.350659 4.163657 -1.948268
v -0.012979 4.163657 -3.890265
v -3.376617 4.163657 -1.948268
v -3.376617 4.163657 1.935726
v -0.012979 4.163657 3.877724
v 3.350659 4.163657 1.935726
v 3.350659 4.163657 -1.948268
v -1.178976 6.041543 -0.679460
v -0.012979 6.041543 -1.352648
v -1.178976 6.041543 0.666918
v -0.012979 6.041543 1.340106
v 1.153018 6.041543 0.666918
v 1.153018 6.041543 -0.679460
v -1.178976 6.041543 -0.679460
v -0.012979 6.041543 -1.352648
v -1.178976 6.041543 0.666918
v -0.012979 6.041543 1.340106
v 1.153018 6.041543 0.666918
v 1.153018 6.041543 -0.679460
v -0.012979 5.278147 -3.430912
v -2.975809 5.144877 -1.718591
v -2.975809 5.144877 1.706050
v -0.012979 5.278147 3.418370
v 2.949852 5.411416 1.706050
v 2.949852 5.411416 -1.718591
v -0.012979 5.278147 -3.430912
v -2.975809 5.144877 -1.718591
v -2.975809 5.144877 1.706050
v -0.012979 5.278147 3.418370
v 2.949852 5.411416 1.706050
v 2.949852 5.411416 -1.718591
v -1.114440 6.886068 -0.599843
v -0.087382 6.932265 -1.193414
v -1.114440 6.886068 0.587301
v -0.087382 6.932265 1.180873
v 0.939677 6.978463 0.587301
v 0.939677 6.978463 -0.599843
v -1.114440 6.886068 -0.599843
v -0.087382 6.932265 -1.193414
v -1.114440 6.886068 0.587301
v -0.087382 6.932265 1.180873
v 0.939677 6.978463 0.587301
v 0.939677 6.978463 -0.599843
v -0.012979 6.697964 -2.800586
v -2.422559 6.474205 -1.403429
v -2.422559 6.474205 1.390887
v -0.012979 6.697964 2.788044
v 2.396602 6.921722 1.390887
v 2.396602 6.921722 -1.403429
v -0.012979 6.697964 -2.800586
v -2.422559 6.474205 -1.403429
v -2.422559 6.474205 1.390887
v -0.012979 6.697964 2.788044
v 2.396602 6.921722 1.390887
v 2.396602 6.921722 -1.403429
v -0.973176 7.965643 -0.490592
v -0.137901 8.043209 -0.974914
v -0.973176 7.965643 0.478050
v -0.137901 8.043209 0.962372
v 0.697375 8.120774 0.478050
v 0.697375 8.120774 -0.490592
v -0.973176 7.965643 -0.490592
v -0.137901 8.043209 -0.974914
v -0.973176 7.965643 0.478050
v -0.137901 8.043209 0.962372
v 0.697375 8.120774 0.478050
v 0.697375 8.120774 -0.490592
v -0.012979 7.839991 -2.220608
v -1.917044 7.611956 -1.113439
v -1.917044 7.611956 1.100897
v -0.012979 7.839991 2.208066
v 1.891086 8.068027 1.100897
v 1.891086 8.068027 -1.113439
v -0.012979 7.839991 -2.220608
v -1.917044 7.611956 -1.113439
v -1.917044 7.611956 1.100897
v -0.012979 7.839991 2.208066
v 1.891086 8.068027 1.100897
v 1.891086 8.068027 -1.113439
v -0.800329 8.823963 -0.390068
v -0.140289 8.903012 -0.773865
v -0.800329 8.823963 0.377526
v -0.140289 8.903012 0.761324
v 0.519751 8.982059 0.377526
v 0.519751 8.982059 -0.390068
v -0.800329 8.823963 -0.390068
v -0.140289 8.903012 -0.773865
v -0.800329 8.823963 0.377526
v -0.140289 8.903012 0.761324
v 0.519751 8.982059 0.377526
v 0.519751 8.982059 -0.390068
v -0.012979 8.663074 -2.005843
v -1.741110 8.552270 -1.006057
v -1.741110 8.552270 0.993515
v -0.012979 8.663074 1.993301
v 1.715153 8.773878 0.993515
v 1.715153 8.773878 -1.006057
v -0.012979 8.663074 -2.005843
v -1.741110 8.552270 -1.006057
v -1.741110 8.552270 0.993515
v -0.012979 8.663074 1.993301
v 1.715153 8.773878 0.993515
v 1.715153 8.773878 -1.006057
v -0.673892 9.589462 -0.352844
v -0.074839 9.627872 -0.699418
v -0.673892 9.589462 0.340303
v -0.074839 9.627872 0.686876
v 0.524213 9.666282 0.340303
v 0.524213 9.666282 -0.352844
v -0.673892 9.589462 -0.352844
v -0.074839 9.627872 -0.699418
v -0.673892 9.589462 0.340303
v -0.074839 9.627872 0.686876
v 0.524213 9.666282 0.340303
v 0.524213 9.666282 -0.352844
v -0.012979 9.511878 -1.595512
v -1.377225 9.329952 -0.800891
v -1.377225 9.329952 0.788350
v -0.012979 9.511878 1.582970
v 1.351268 9.693804 0.788350
v 1.351268 9.693804 -0.800891
v -0.012979 9.511878 -1.595512
v -1.377225 9.329952 -0.800891
v -1.377225 9.329952 0.788350
v -0.012979 9.511878 1.582970
v 1.351268 9.693804 0.788350
v 1.351268 9.693804 -0.800891
v -0.587459 10.210459 -0.281724
v -0.114546 10.273523 -0.557178
v -0.587459 10.210459 0.269182
v -0.114546 10.273523 0.544636
v 0.358367 10.336587 0.269182
v 0.358367 10.336587 -0.281724
v -0.587459 10.210459 -0.281724
v -0.114546 10.273523 -0.557178
v -0.587459 10.210459 0.269182
v -0.114546 10.273523 0.544636
v 0.358367 10.336587 0.269182
v 0.358367 10.336587 -0.281724
v -0.012979 10.154911 -1.267916
v -1.099207 10.036937 -0.637093
v -1.099207 10.036937 0.624552
v -0.012979 10.154911 1.255374
v 1.073250 10.272884 0.624552
v 1.073250 10.272884 -0.637093
v -0.012979 10.154911 -1.267916
v -1.099207 10.036937 -0.637093
v -1.099207 10.036937 0.624552
v -0.012979 10.154911 1.255374
v 1.073250 10.272884 0.624552
v 1.073250 10.272884 -0.637093
v -0.455381 10.720447 -0.224944
v -0.078842 10.761341 -0.443617
v -0.455381 10.720447 0.212402
v -0.078842 10.761341 0.431075
v 0.297696 10.802237 0.212402
v 0.297696 10.802237 -0.224944
v -0.455381 10.720447 -0.224944
v -0.078842 10.761341 -0.443617
v -0.455381 10.720447 0.212402
v -0.078842 10.761341 0.431075
v 0.297696 10.802237 0.212402
v 0.297696 10.802237 -0.224944
v -0.012979 10.720779 -0.937513
v -0.814834 10.634542 -0.471892
v -0.814834 10.634542 0.459350
v -0.012979 10.720779 0.924971
v 0.788876 10.807016 0.459350
v 0.788876 10.807016 -0.471892
v -0.012979 10.720779 -0.937513
v -0.814834 10.634542 -0.471892
v -0.814834 10.634542 0.459350
v -0.012979 10.720779 0.924971
v 0.788876 10.807016 0.459350
v 0.788876 10.807016 -0.471892
v -0.339085 11.138553 -0.167677
v -0.061124 11.168447 -0.329084
v -0.339085 11.138553 0.155135
v -0.061124 11.168447 0.316542
v 0.216837 11.198340 0.155135
v 0.216837 11.198340 -0.167677
v -0.339085 11.138553 -0.167677
v -0.061124 11.168447 -0.329084
v -0.339085 11.138553 0.155135
v -0.061124 11.168447 0.316542
v 0.216837 11.198340 0.155135
v 0.216837 11.198340 -0.167677
v -0.012979 11.132320 -0.537223
v -0.469578 11.078012 -0.271747
v -0.469578 11.078012 0.259205
v -0.012979 11.132320 0.524681
v 0.443620 11.186629 0.259205
v 0.443620 11.186629 -0.271747
v -0.012979 11.132320 -0.537223
v -0.469578 11.078012 -0.271747
v -0.469578 11.078012 0.259205
v -0.012979 11.132320 0.524681
v 0.443620 11.186629 0.259205
v 0.443620 11.186629 -0.271747
v -0.066810 11.496387 -0.012307
v -0.056428 11.497622 -0.018343
v -0.066810 11.496387 -0.000235
v -0.056428 11.497622 0.005801
v -0.046047 11.498857 -0.000235
v -0.046047 11.498857 -0.012307
vn -0.0000 1.0000 -0.0000
vn 0.4966 0.1170 -0.8601
vn 0.4966 0.1170 0.8601
vn -0.9931 0.1170 -0.0000
vn 0.9931 0.1170 -0.0000
vn -0.4966 0.1170 0.8601
vn -0.4966 0.1170 -0.8601
vn 0.9995 0.0322 -0.0000
vn -0.4997 0.0322 0.8656
vn -0.4997 0.0322 -0.8656
vn 0.4997 0.0322 -0.8656
vn 0.4997 0.0322 0.8656
vn -0.9995 0.0322 -0.0000
vn 0.4988 0.0679 -0.8640
vn 0.4988 0.0679 0.8640
vn -0.9977 0.0679 -0.0000
vn 0.9977 0.0679 -0.0000
vn -0.4988 0.0679 0.8640
vn -0.4988 0.0679 -0.8640
vn 1.0000 -0.0000 -0.0000
vn -0.5000 -0.0000 0.8660
vn -0.5000 -0.0000 -0.8660
vn 0.5000 -0.0000 -0.8660
vn 0.5000 -0.0000 0.8660
vn -1.0000 -0.0000 -0.0000
vn -0.0000 -1.0000 -0.0000
vn -0.6496 -0.7602 -0.0000
vn -0.3248 0.7602 -0.5626
vn 0.6496 -0.7602 -0.0000
vn 0.6496 0.7602 -0.0000
vn -0.3248 -0.7602 0.5626
vn -0.6496 0.7602 -0.0000
vn 0.3248 -0.7602 -0.5626
vn 0.3248 0.7602 -0.5626
vn -0.3248 0.7602 0.5626
vn -0.3248 -0.7602 -0.5626
vn 0.3248 -0.7602 0.5626
vn 0.3248 0.7602 0.5626
vn -0.6148 -0.7887 -0.0000
vn -0.3587 0.7449 -0.5626
vn 0.6831 -0.7303 -0.0000
vn 0.6148 0.7887 -0.0000
vn -0.2903 -0.7741 0.5626
vn -0.6831 0.7303 -0.0000
vn 0.3586 -0.7449 -0.5626
vn 0.2903 0.7741 -0.5626
vn -0.3586 0.7449 0.5626
vn -0.2903 -0.7741 -0.5626
vn 0.3586 -0.7449 0.5626
vn 0.2903 0.7741 0.5626
vn -0.0449 0.9990 -0.0000
vn -0.5766 -0.8171 -0.0000
vn -0.3937 0.7270 -0.5626
vn 0.7171 -0.6969 -0.0000
vn 0.5766 0.8171 -0.0000
vn -0.2531 -0.7870 0.5626
vn -0.7171 0.6969 -0.0000
vn 0.3937 -0.7270 -0.5626
vn 0.2531 0.7870 -0.5626
vn -0.3937 0.7270 0.5626
vn -0.2531 -0.7870 -0.5626
vn 0.3937 -0.7270 0.5626
vn 0.2531 0.7870 0.5626
vn -0.0925 0.9957 -0.0000
vn -0.5546 -0.8321 -0.0000
vn -0.4129 0.7162 -0.5626
vn 0.7354 -0.6776 -0.0000
vn 0.5546 0.8321 -0.0000
vn -0.2321 -0.7935 0.5626
vn -0.7354 0.6776 -0.0000
vn 0.4129 -0.7162 -0.5626
vn 0.2321 0.7935 -0.5626
vn -0.4129 0.7162 0.5626
vn -0.2321 -0.7935 -0.5626
vn 0.4129 -0.7162 0.5626
vn 0.2321 0.7935 0.5626
vn -0.1189 0.9929 -0.0000
vn -0.5997 -0.8003 -0.0000
vn -0.3728 0.7379 -0.5626
vn 0.6969 -0.7171 -0.0000
vn 0.5997 0.8003 -0.0000
vn -0.2755 -0.7795 0.5626
vn -0.6969 0.7171 -0.0000
vn 0.3728 -0.7379 -0.5626
vn 0.2755 0.7795 -0.5626
vn -0.3728 0.7379 0.5626
vn -0.2755 -0.7795 -0.5626
vn 0.3728 -0.7379 0.5626
vn 0.2755 0.7795 0.5626
vn -0.0640 0.9980 -0.0000
vn -0.5434 -0.8394 -0.0000
vn -0.4225 0.7106 -0.5626
vn 0.7444 -0.6677 -0.0000
vn 0.5434 0.8394 -0.0000
vn -0.2215 -0.7965 0.5626
vn -0.7444 0.6677 -0.0000
vn 0.4225 -0.7106 -0.5626
vn 0.2215 0.7965 -0.5626
vn -0.4225 0.7106 0.5626
vn -0.2215 -0.7965 -0.5626
vn 0.4225 -0.7106 0.5626
vn 0.2215 0.7965 0.5626
vn -0.1322 0.9912 -0.0000
vn -0.5637 -0.8259 -0.0000
vn -0.4050 0.7207 -0.5626
vn 0.7279 -0.6857 -0.0000
vn 0.5637 0.8259 -0.0000
vn -0.2408 -0.7909 0.5626
vn -0.7279 0.6857 -0.0000
vn 0.4050 -0.7207 -0.5626
vn 0.2408 0.7909 -0.5626
vn -0.4050 0.7207 0.5626
vn -0.2408 -0.7909 -0.5626
vn 0.4050 -0.7207 0.5626
vn 0.2408 0.7909 0.5626
vn -0.1080 0.9942 -0.0000
vn -0.5646 -0.8254 -0.0000
vn -0.4042 0.7212 -0.5626
vn 0.7272 -0.6864 -0.0000
vn 0.5646 0.8254 -0.0000
vn -0.2417 -0.7906 0.5626
vn -0.7272 0.6864 -0.0000
vn 0.4042 -0.7212 -0.5626
vn 0.2417 0.7906 -0.5626
vn -0.4042 0.7212 0.5626
vn -0.2417 -0.7906 -0.5626
vn 0.4042 -0.7212 0.5626
vn 0.2417 0.7906 0.5626
vn -0.1069 0.9943 -0.0000
vn -0.4059 0.7310 -0.5486
vn 0.5376 0.8432 -0.0000
vn -0.7204 0.6935 -0.0000
vn 0.2231 0.8058 -0.5486
vn -0.4059 0.7310 0.5486
vn 0.2231 0.8058 0.5486
vn -0.1181 0.9930 -0.0000
vt 0.000000 0.000000
s 0
usemtl tree4
f 5/1/1 6/1/1 12/1/1 11/1/1
f 3/1/1 4/1/1 10/1/1 9/1/1
f 1/1/1 2/1/1 8/1/1 7/1/1
f 6/1/1 1/1/1 7/1/1 12/1/1
f 4/1/1 5/1/1 11/1/1 10/1/1
f 2/1/1 3/1/1 9/1/1 8/1/1
f 12/1/2 7/1/2 13/1/2 18/1/2
f 10/1/3 11/1/3 17/1/3 16/1/3
f 8/1/4 9/1/4 15/1/4 14/1/4
f 11/1/5 12/1/5 18/1/5 17/1/5
f 9/1/6 10/1/6 16/1/6 15/1/6
f 7/1/7 8/1/7 14/1/7 13/1/7
f 17/1/8 18/1/8 24/1/8 23/1/8
f 15/1/9 16/1/9 22/1/9 21/1/9
f 13/1/10 14/1/10 20/1/10 19/1/10
f 18/1/11 13/1/11 19/1/11 24/1/11
f 16/1/12 17/1/12 23/1/12 22/1/12
f 14/1/13 15/1/13 21/1/13 20/1/13
f 24/1/14 19/1/14 25/1/14 30/1/14
f 22/1/15 23/1/15 29/1/15 28/1/15
f 20/1/16 21/1/16 27/1/16 26/1/16
f 23/1/17 24/1/17 30/1/17 29/1/17
f 21/1/18 22/1/18 28/1/18 27/1/18
f 19/1/19 20/1/19 26/1/19 25/1/19
f 29/1/20 30/1/20 36/1/20 35/1/20
f 27/1/21 28/1/21 34/1/21 33/1/21
f 25/1/22 26/1/22 32/1/22 31/1/22
f 30/1/23 25/1/23 31/1/23 36/1/23
f 28/1/24 29/1/24 35/1/24 34/1/24
f 26/1/25 27/1/25 33/1/25 32/1/25
f 9/1/26 8/1/26 7/1/26 12/1/26 11/1/26 10/1/26
usemtl Material.001
f 38/1/1 44/1/1 45/1/1 39/1/1
f 41/1/1 47/1/1 48/1/1 42/1/1
f 39/1/1 45/1/1 46/1/1 40/1/1
f 37/1/1 43/1/1 44/1/1 38/1/1
f 42/1/1 48/1/1 43/1/1 37/1/1
f 40/1/1 46/1/1 47/1/1 41/1/1
f 49/1/1 51/1/1 57/1/1 55/1/1
f 53/1/1 54/1/1 60/1/1 59/1/1
f 51/1/1 52/1/1 58/1/1 57/1/1
f 50/1/1 49/1/1 55/1/1 56/1/1
f 54/1/1 50/1/1 56/1/1 60/1/1
f 52/1/1 53/1/1 59/1/1 58/1/1
f 48/1/27 47/1/27 59/1/27 60/1/27
f 37/1/28 38/1/28 49/1/28 50/1/28
f 45/1/29 44/1/29 55/1/29 57/1/29
f 41/1/30 42/1/30 54/1/30 53/1/30
f 43/1/31 48/1/31 60/1/31 56/1/31
f 38/1/32 39/1/32 51/1/32 49/1/32
f 46/1/33 45/1/33 57/1/33 58/1/33
f 42/1/34 37/1/34 50/1/34 54/1/34
f 39/1/35 40/1/35 52/1/35 51/1/35
f 47/1/36 46/1/36 58/1/36 59/1/36
f 44/1/37 43/1/37 56/1/37 55/1/37
f 40/1/38 41/1/38 53/1/38 52/1/38
f 44/1/1 45/1/1 46/1/1 47/1/1 48/1/1 43/1/1
f 62/1/1 68/1/1 69/1/1 63/1/1
f 65/1/1 71/1/1 72/1/1 66/1/1
f 63/1/1 69/1/1 70/1/1 64/1/1
f 61/1/1 67/1/1 68/1/1 62/1/1
f 66/1/1 72/1/1 67/1/1 61/1/1
f 64/1/1 70/1/1 71/1/1 65/1/1
f 73/1/1 75/1/1 81/1/1 79/1/1
f 77/1/1 78/1/1 84/1/1 83/1/1
f 75/1/1 76/1/1 82/1/1 81/1/1
f 74/1/1 73/1/1 79/1/1 80/1/1
f 78/1/1 74/1/1 80/1/1 84/1/1
f 76/1/1 77/1/1 83/1/1 82/1/1
f 72/1/39 71/1/39 83/1/39 84/1/39
f 61/1/40 62/1/40 73/1/40 74/1/40
f 69/1/41 68/1/41 79/1/41 81/1/41
f 65/1/42 66/1/42 78/1/42 77/1/42
f 67/1/43 72/1/43 84/1/43 80/1/43
f 62/1/44 63/1/44 75/1/44 73/1/44
f 70/1/45 69/1/45 81/1/45 82/1/45
f 66/1/46 61/1/46 74/1/46 78/1/46
f 63/1/47 64/1/47 76/1/47 75/1/47
f 71/1/48 70/1/48 82/1/48 83/1/48
f 68/1/49 67/1/49 80/1/49 79/1/49
f 64/1/50 65/1/50 77/1/50 76/1/50
f 68/1/51 69/1/51 70/1/51 71/1/51 72/1/51 67/1/51
f 86/1/1 92/1/1 93/1/1 87/1/1
f 89/1/1 95/1/1 96/1/1 90/1/1
f 87/1/1 93/1/1 94/1/1 88/1/1
f 85/1/1 91/1/1 92/1/1 86/1/1
f 90/1/1 96/1/1 91/1/1 85/1/1
f 88/1/1 94/1/1 95/1/1 89/1/1
f 97/1/1 99/1/1 105/1/1 103/1/1
f 101/1/1 102/1/1 108/1/1 107/1/1
f 99/1/1 100/1/1 106/1/1 105/1/1
f 98/1/1 97/1/1 103/1/1 104/1/1
f 102/1/1 98/1/1 104/1/1 108/1/1
f 100/1/1 101/1/1 107/1/1 106/1/1
f 96/1/52 95/1/52 107/1/52 108/1/52
f 85/1/53 86/1/53 97/1/53 98/1/53
f 93/1/54 92/1/54 103/1/54 105/1/54
f 89/1/55 90/1/55 102/1/55 101/1/55
f 91/1/56 96/1/56 108/1/56 104/1/56
f 86/1/57 87/1/57 99/1/57 97/1/57
f 94/1/58 93/1/58 105/1/58 106/1/58
f 90/1/59 85/1/59 98/1/59 102/1/59
f 87/1/60 88/1/60 100/1/60 99/1/60
f 95/1/61 94/1/61 106/1/61 107/1/61
f 92/1/62 91/1/62 104/1/62 103/1/62
f 88/1/63 89/1/63 101/1/63 100/1/63
f 92/1/64 93/1/64 94/1/64 95/1/64 96/1/64 91/1/64
f 110/1/1 116/1/1 117/1/1 111/1/1
f 113/1/1 119/1/1 120/1/1 114/1/1
f 111/1/1 117/1/1 118/1/1 112/1/1
f 109/1/1 115/1/1 116/1/1 110/1/1
f 114/1/1 120/1/1 115/1/1 109/1/1
f 112/1/1 118/1/1 119/1/1 113/1/1
f 121/1/1 123/1/1 129/1/1 127/1/1
f 125/1/1 126/1/1 132/1/1 131/1/1
f 123/1/1 124/1/1 130/1/1 129/1/1
f 122/1/1 121/1/1 127/1/1 128/1/1
f 126/1/1 122/1/1 128/1/1 132/1/1
f 124/1/1 125/1/1 131/1/1 130/1/1
f 120/1/65 119/1/65 131/1/65 132/1/65
f 109/1/66 110/1/66 121/1/66 122/1/66
f 117/1/67 116/1/67 127/1/67 129/1/67
f 113/1/68 114/1/68 126/1/68 125/1/68
f 115/1/69 120/1/69 132/1/69 128/1/69
f 110/1/70 111/1/70 123/1/70 121/1/70
f 118/1/71 117/1/71 129/1/71 130/1/71
f 114/1/72 109/1/72 122/1/72 126/1/72
f 111/1/73 112/1/73 124/1/73 123/1/73
f 119/1/74 118/1/74 130/1/74 131/1/74
f 116/1/75 115/1/75 128/1/75 127/1/75
f 112/1/76 113/1/76 125/1/76 124/1/76
f 116/1/77 117/1/77 118/1/77 119/1/77 120/1/77 115/1/77
f 134/1/1 140/1/1 141/1/1 135/1/1
f 137/1/1 143/1/1 144/1/1 138/1/1
f 135/1/1 141/1/1 142/1/1 136/1/1
f 133/1/1 139/1/1 140/1/1 134/1/1
f 138/1/1 144/1/1 139/1/1 133/1/1
f 136/1/1 142/1/1 143/1/1 137/1/1
f 145/1/1 147/1/1 153/1/1 151/1/1
f 149/1/1 150/1/1 156/1/1 155/1/1
f 147/1/1 148/1/1 154/1/1 153/1/1
f 146/1/1 145/1/1 151/1/1 152/1/1
f 150/1/1 146/1/1 152/1/1 156/1/1
f 148/1/1 149/1/1 155/1/1 154/1/1
f 144/1/78 143/1/78 155/1/78 156/1/78
f 133/1/79 134/1/79 145/1/79 146/1/79
f 141/1/80 140/1/80 151/1/80 153/1/80
f 137/1/81 138/1/81 150/1/81 149/1/81
f 139/1/82 144/1/82 156/1/82 152/1/82
f 134/1/83 135/1/83 147/1/83 145/1/83
f 142/1/84 141/1/84 153/1/84 154/1/84
f 138/1/85 133/1/85 146/1/85 150/1/85
f 135/1/86 136/1/86 148/1/86 147/1/86
f 143/1/87 142/1/87 154/1/87 155/1/87
f 140/1/88 139/1/88 152/1/88 151/1/88
f 136/1/89 137/1/89 149/1/89 148/1/89
f 140/1/90 141/1/90 142/1/90 143/1/90 144/1/90 139/1/90
f 158/1/1 164/1/1 165/1/1 159/1/1
f 161/1/1 167/1/1 168/1/1 162/1/1
f 159/1/1 165/1/1 166/1/1 160/1/1
f 157/1/1 163/1/1 164/1/1 158/1/1
f 162/1/1 168/1/1 163/1/1 157/1/1
f 160/1/1 166/1/1 167/1/1 161/1/1
f 169/1/1 171/1/1 177/1/1 175/1/1
f 173/1/1 174/1/1 180/1/1 179/1/1
f 171/1/1 172/1/1 178/1/1 177/1/1
f 170/1/1 169/1/1 175/1/1 176/1/1
f 174/1/1 170/1/1 176/1/1 180/1/1
f 172/1/1 173/1/1 179/1/1 178/1/1
f 168/1/91 167/1/91 179/1/91 180/1/91
f 157/1/92 158/1/92 169/1/92 170/1/92
f 165/1/93 164/1/93 175/1/93 177/1/93
f 161/1/94 162/1/94 174/1/94 173/1/94
f 163/1/95 168/1/95 180/1/95 176/1/95
f 158/1/96 159/1/96 171/1/96 169/1/96
f 166/1/97 165/1/97 177/1/97 178/1/97
f 162/1/98 157/1/98 170/1/98 174/1/98
f 159/1/99 160/1/99 172/1/99 171/1/99
f 167/1/100 166/1/100 178/1/100 179/1/100
f 164/1/101 163/1/101 176/1/101 175/1/101
f 160/1/102 161/1/102 173/1/102 172/1/102
f 164/1/103 165/1/103 166/1/103 167/1/103 168/1/103 163/1/103
f 182/1/1 188/1/1 189/1/1 183/1/1
f 185/1/1 191/1/1 192/1/1 186/1/1
f 183/1/1 189/1/1 190/1/1 184/1/1
f 181/1/1 187/1/1 188/1/1 182/1/1
f 186/1/1 192/1/1 187/1/1 181/1/1
f 184/1/1 190/1/1 191/1/1 185/1/1
f 193/1/1 195/1/1 201/1/1 199/1/1
f 197/1/1 198/1/1 204/1/1 203/1/1
f 195/1/1 196/1/1 202/1/1 201/1/1
f 194/1/1 193/1/1 199/1/1 200/1/1
f 198/1/1 194/1/1 200/1/1 204/1/1
f 196/1/1 197/1/1 203/1/1 202/1/1
f 192/1/104 191/1/104 203/1/104 204/1/104
f 181/1/105 182/1/105 193/1/105 194/1/105
f 189/1/106 188/1/106 199/1/106 201/1/106
f 185/1/107 186/1/107 198/1/107 197/1/107
f 187/1/108 192/1/108 204/1/108 200/1/108
f 182/1/109 183/1/109 195/1/109 193/1/109
f 190/1/110 189/1/110 201/1/110 202/1/110
f 186/1/111 181/1/111 194/1/111 198/1/111
f 183/1/112 184/1/112 196/1/112 195/1/112
f 191/1/113 190/1/113 202/1/113 203/1/113
f 188/1/114 187/1/114 200/1/114 199/1/114
f 184/1/115 185/1/115 197/1/115 196/1/115
f 188/1/116 189/1/116 190/1/116 191/1/116 192/1/116 187/1/116
f 206/1/1 212/1/1 213/1/1 207/1/1
f 209/1/1 215/1/1 216/1/1 210/1/1
f 207/1/1 213/1/1 214/1/1 208/1/1
f 205/1/1 211/1/1 212/1/1 206/1/1
f 210/1/1 216/1/1 211/1/1 205/1/1
f 208/1/1 214/1/1 215/1/1 209/1/1
f 217/1/1 219/1/1 225/1/1 223/1/1
f 221/1/1 222/1/1 228/1/1 227/1/1
f 219/1/1 220/1/1 226/1/1 225/1/1
f 218/1/1 217/1/1 223/1/1 224/1/1
f 222/1/1 218/1/1 224/1/1 228/1/1
f 220/1/1 221/1/1 227/1/1 226/1/1
f 216/1/117 215/1/117 227/1/117 228/1/117
f 205/1/118 206/1/118 217/1/118 218/1/118
f 213/1/119 212/1/119 223/1/119 225/1/119
f 209/1/120 210/1/120 222/1/120 221/1/120
f 211/1/121 216/1/121 228/1/121 224/1/121
f 206/1/122 207/1/122 219/1/122 217/1/122
f 214/1/123 213/1/123 225/1/123 226/1/123
f 210/1/124 205/1/124 218/1/124 222/1/124
f 207/1/125 208/1/125 220/1/125 219/1/125
f 215/1/126 214/1/126 226/1/126 227/1/126
f 212/1/127 211/1/127 224/1/127 223/1/127
f 208/1/128 209/1/128 221/1/128 220/1/128
f 212/1/129 213/1/129 214/1/129 215/1/129 216/1/129 211/1/129
f 230/1/1 236/1/1 237/1/1 231/1/1
f 233/1/1 239/1/1 240/1/1 234/1/1
f 231/1/1 237/1/1 238/1/1 232/1/1
f 229/1/1 235/1/1 236/1/1 230/1/1
f 234/1/1 240/1/1 235/1/1 229/1/1
f 232/1/1 238/1/1 239/1/1 233/1/1
f 229/1/130 230/1/130 241/1/130 242/1/130
f 233/1/131 234/1/131 246/1/131 245/1/131
f 230/1/132 231/1/132 243/1/132 241/1/132
f 234/1/133 229/1/133 242/1/133 246/1/133
f 231/1/134 232/1/134 244/1/134 243/1/134
f 232/1/135 233/1/135 245/1/135 244/1/135
f 236/1/136 237/1/136 238/1/136 239/1/136 240/1/136 235/1/136
